PathFileType	4	(X/Y/Z)	OpenSim_Sub05_CSBaseline_Magnet.trc
DataRate	CameraRate	NumFrames	NumMarkers	Units	OrigDataRate	OrigDataStartFrame	OrigNumFrames
100	100	16	8	m	100	1320	10557
Frame#	Time	torso_imu_offset_imu	pelvis_imu_offset_imu	tibia_r_imu_offset_imu	femur_r_imu_offset_imu	tibia_l_imu_offset_imu	femur_l_imu_offset_imu	toes_r_imu_offset_imu	toes_l_imu_offset_imu
				X1	Y1	Z1	X2	Y2	Z2	X3	Y3	Z3	X4	Y4	Z4	X5	Y5	Z5	X6	Y6	Z6	X7	Y7	Z7	X8		Y8	Z8	

1320	13.19000000	-0.90411972	-0.21892609	0.15655666	-0.68986423	0.20358130	-0.62319542	-0.53547877	-0.61730397	-0.08236729	-0.76652002	-0.38605919	0.09526279	-0.53519670	0.56098909	0.25430433	-0.66817691	0.08768731	0.13046816	-0.71018481	-0.16335954	-0.32206765	-0.75764309	-0.20263612	-0.19884133
1321	13.20000000	-0.89983097	-0.22021687	0.15605609	-0.69015447	0.20358767	-0.62617928	-0.52953232	-0.62424924	-0.08561457	-0.76330801	-0.39165814	0.09700370	-0.56830456	0.53322219	0.24460640	-0.65946638	0.08512117	0.12468472	-0.71224582	-0.16204149	-0.32030533	-0.74671087	-0.20338395	-0.22205890
1322	13.21000000	-0.90054220	-0.21552350	0.15384160	-0.68841031	0.20588026	-0.62711696	-0.51488258	-0.62753473	-0.08432766	-0.75924700	-0.40124271	0.09549095	-0.59072599	0.51474006	0.23437696	-0.65820059	0.08432189	0.13165893	-0.71122837	-0.16445908	-0.31800087	-0.73457678	-0.20802839	-0.25172747
1323	13.22000000	-0.90523707	-0.20937620	0.16004054	-0.68731713	0.20219884	-0.62470370	-0.52329861	-0.63461041	-0.08256322	-0.75575770	-0.40470788	0.09276654	-0.61636565	0.48790716	0.22778351	-0.66216499	0.08736946	0.13515934	-0.70842298	-0.17069607	-0.32320740	-0.72660202	-0.21151258	-0.28240113
1324	13.23000000	-0.90189255	-0.21109421	0.15794469	-0.68959807	0.20619249	-0.62492510	-0.51106119	-0.63671998	-0.08776815	-0.75269530	-0.40649702	0.09340428	-0.64072792	0.45831643	0.22492660	-0.65906182	0.09212834	0.14055879	-0.70792618	-0.17066634	-0.32039710	-0.70667067	-0.21452479	-0.31539821
1325	13.24000000	-0.90031821	-0.20662930	0.16010862	-0.68853415	0.20700535	-0.62054264	-0.50632492	-0.64077657	-0.09299325	-0.75065912	-0.40863223	0.08820656	-0.65934743	0.43862746	0.22026155	-0.65643965	0.09578444	0.15076430	-0.70951350	-0.17547781	-0.31715517	-0.69172109	-0.22011548	-0.34134155
1326	13.25000000	-0.90238084	-0.20476563	0.15899381	-0.68731884	0.20512958	-0.62259536	-0.50249124	-0.64656330	-0.09763497	-0.74870653	-0.41053206	0.09640650	-0.67188628	0.41040450	0.21474880	-0.65257899	0.10426815	0.15604207	-0.71016298	-0.17865433	-0.32051351	-0.67821332	-0.22887180	-0.36297459
1327	13.26000000	-0.90309499	-0.20273002	0.16424593	-0.68946736	0.20890880	-0.62508333	-0.49369961	-0.64798723	-0.09714479	-0.74623507	-0.41260584	0.10061924	-0.69298128	0.38212729	0.21100602	-0.65174663	0.10785070	0.16048314	-0.70955443	-0.18222532	-0.31488923	-0.66098281	-0.23331016	-0.38556829
1328	13.27000000	-0.90379603	-0.20696217	0.15941860	-0.68913898	0.21183738	-0.62191057	-0.49167374	-0.65444052	-0.09538707	-0.74607073	-0.41574646	0.10000781	-0.71201512	0.35574421	0.21000835	-0.64878911	0.11431341	0.16479018	-0.71205518	-0.18446170	-0.31705656	-0.64973753	-0.24395588	-0.40824277
1329	13.28000000	-0.90917954	-0.21003839	0.15717142	-0.68522438	0.21243849	-0.61313992	-0.48445243	-0.65311968	-0.09907206	-0.74218259	-0.42254126	0.09866730	-0.71867304	0.33273361	0.20780192	-0.64672803	0.12300783	0.16999824	-0.70806918	-0.19054229	-0.31332314	-0.62908703	-0.25458616	-0.42659208
1330	13.29000000	-0.90288231	-0.20530741	0.16251491	-0.69309558	0.21130394	-0.60810723	-0.47961761	-0.66183504	-0.10175334	-0.74252280	-0.42189451	0.09653010	-0.71984557	0.30926983	0.20360553	-0.65163202	0.12115458	0.16897094	-0.71221011	-0.18962601	-0.31286312	-0.61369258	-0.26099791	-0.43749845
1331	13.30000000	-0.90352520	-0.19564876	0.16160694	-0.69975816	0.21738742	-0.61139548	-0.46791331	-0.67092408	-0.10410325	-0.74356032	-0.42572777	0.09176735	-0.73672589	0.28715326	0.20426295	-0.64769273	0.11714032	0.17165128	-0.71222718	-0.19653688	-0.31156332	-0.60360484	-0.26765629	-0.45437226
1332	13.31000000	-0.90558133	-0.19727988	0.16006413	-0.69400342	0.21370865	-0.61639365	-0.46307941	-0.67534970	-0.10305269	-0.74200705	-0.42949112	0.09469263	-0.74637372	0.27420709	0.20158721	-0.64285749	0.11988089	0.18551807	-0.71471839	-0.20209360	-0.30323284	-0.58952752	-0.27286668	-0.46633876
1333	13.32000000	-0.90566886	-0.19692056	0.16444360	-0.69316248	0.21557089	-0.60623396	-0.45558054	-0.67710240	-0.11202544	-0.73906306	-0.43242376	0.09393503	-0.74716834	0.26347259	0.20050787	-0.64648389	0.11425294	0.18949450	-0.71347959	-0.20226349	-0.29791545	-0.58250727	-0.27476106	-0.47310412
1334	13.33000000	-0.90187410	-0.19968017	0.16218402	-0.69786326	0.22233565	-0.60713164	-0.44461103	-0.68579890	-0.11707963	-0.74119618	-0.43627098	0.08487539	-0.75196179	0.25470853	0.20205145	-0.64657440	0.11747975	0.18846079	-0.71989189	-0.21140341	-0.29318354	-0.57828886	-0.28002562	-0.47939118
1335	13.34000000	-0.90216003	-0.19822450	0.16073996	-0.70062890	0.22080641	-0.60464607	-0.43160646	-0.69169468	-0.11814849	-0.73578731	-0.43252457	0.07837346	-0.75024046	0.25466417	0.19765506	-0.64353344	0.11983139	0.18974191	-0.71928306	-0.21808006	-0.28170244	-0.57587037	-0.27270156	-0.48767877
